<svg id="Layer_1" data-name="Layer 1" xmlns="http://www.w3.org/2000/svg" viewBox="0 0 864 173.3304">
  <title>merlin-ai-logo-full-colour-rgb</title>
  <g>
    <path id="fullLogo" d="M515.1264,79.3643q-4.8845-.932-6.6867-6.2216-1.8045-5.29-1.8025-15.874V.2855H491.4027l-23.84,57.1L439.42.2855H425.2327v76.753h5.8143V13.7754l31.1665,63.2631h3.8376L491.519,16.1013V57.2687q0,13.143,5.4657,19.0719,5.465,5.9309,18.1417,5.9309Z" style="fill: #007bff"/>
    <path id="fullLogo-2" data-name="fullLogo" d="M581.0048,68.9562a19.8353,19.8353,0,0,1-10.8733,2.849H550.2454v-31.98h30.236v-5.233h-30.236V5.5187h18.7233q6.9771,0,10.757,3.256,3.7775,3.2574,3.7794,10.699h3.4888V9.5888a14.6034,14.6034,0,0,0-.4071-3.4306,7.0028,7.0028,0,0,0-1.5119-2.9654A8.0979,8.0979,0,0,0,582.0514,1.1a12.7939,12.7939,0,0,0-4.9425-.8142H525.8241V3.7743h1.1629q5.2332,0,6.6869,3.1979a20.6068,20.6068,0,0,1,1.4535,8.4313v61.635h43.0281q4.767,0,6.8031-2.21a16.6233,16.6233,0,0,0,3.3144-5.931l3.3726-9.187-3.14-1.1628Q585.48,66.1086,581.0048,68.9562Z" style="fill: #007bff"/>
    <path id="fullLogo-3" data-name="fullLogo" d="M667.2346,71.2238a24.8713,24.8713,0,0,1-3.8959-3.7795,44.0781,44.0781,0,0,1-4.2447-6.1054L646.8835,40.9878a47.387,47.387,0,0,0,6.6287-2.21,23.6949,23.6949,0,0,0,6.1052-3.6631,17.4459,17.4459,0,0,0,4.4191-5.582,17.1277,17.1277,0,0,0,1.6863-7.85,19.5789,19.5789,0,0,0-1.57-8.1985A18.2047,18.2047,0,0,0,660.0243,7.67a20.85,20.85,0,0,0-5.8726-3.8378,39.0215,39.0215,0,0,0-6.8032-2.2676A43.5765,43.5765,0,0,0,640.4872.518q-3.3741-.2314-6.1633-.2325H602.227V3.7743H603.39q5.2332,0,6.6871,3.1979a20.61,20.61,0,0,1,1.4535,8.4313v61.635H626.765v-35.12h4.6514l11.6292,19.4208a65.5322,65.5322,0,0,0,5.64,8.0243,30.8881,30.8881,0,0,0,5.4657,5.2332,17.8676,17.8676,0,0,0,5.5819,2.791,21.316,21.316,0,0,0,5.8729.814,31.71,31.71,0,0,0,4.5935-.349,12.28,12.28,0,0,0,3.3144-.8139V74.1311a14.45,14.45,0,0,1-2.8491-.8721A15.73,15.73,0,0,1,667.2346,71.2238Zm-22.8515-37.446a14.119,14.119,0,0,1-5.0588,2.6748,19.8326,19.8326,0,0,1-5.5819.814H626.765V5.7512q1.0464-.1144,2.3255-.3489a18.6336,18.6336,0,0,1,2.4424-.3487q1.3951-.1146,2.791-.1163a17.9725,17.9725,0,0,1,5.233.8139,13.32,13.32,0,0,1,4.8846,2.7329,14.3522,14.3522,0,0,1,3.6048,5.0007,18.4455,18.4455,0,0,1,1.3954,7.6169,18.8608,18.8608,0,0,1-1.3954,7.6754A13.3145,13.3145,0,0,1,644.3831,33.7778Z" style="fill: #007bff"/>
    <path id="fullLogo-4" data-name="fullLogo" d="M704.913,15.4035a46.97,46.97,0,0,0-.465-7.21,11.138,11.138,0,0,0-1.6865-4.6517,6.756,6.756,0,0,0-3.2563-2.5,14.6668,14.6668,0,0,0-5.0588-.7559H680.4917V3.7743h1.1629q5.2329,0,6.6864,3.1979a20.598,20.598,0,0,1,1.4538,8.4313v61.635h55.239V71.8052H704.913Z" style="fill: #007bff"/>
    <path id="fullLogo-5" data-name="fullLogo" d="M858.1853.2855V53.78L818.1807,7.2631A16.5336,16.5336,0,0,0,811.3778,2.03,27.9707,27.9707,0,0,0,800.6205.2855h-8.14V3.7743h.5811a13.722,13.722,0,0,1,5.059.8139,8.3718,8.3718,0,0,1,3.256,2.21,7.71,7.71,0,0,1,1.6865,3.3144,17.5591,17.5591,0,0,1,.4651,4.1283v62.798h5.8147V19.4737L858.65,77.3874H864V.2855Z" style="fill: #007bff"/>
    <path id="fullLogo-6" data-name="fullLogo" d="M483.146,158.2127l-26.0494-62.1h-5.2332l-34.3063,76.7528h5.8147L432.9587,151.7H464.06l2.6892,6.5127a27.1127,27.1127,0,0,0,4.8262,7.9658,20.7854,20.7854,0,0,0,5.8148,4.5353,21.3622,21.3622,0,0,0,6.28,2.0932,37.1923,37.1923,0,0,0,5.9891.5234,29.2324,29.2324,0,0,0,2.9654-.1745,19.993,19.993,0,0,0,2.6166-.4068v-2.9076a11.5673,11.5673,0,0,1-6.9776-3.4885A24.4047,24.4047,0,0,1,483.146,158.2127Zm-47.7308-11.7456,13.5627-30.3525,12.8614,30.3525Z" style="fill: #007bff"/>
    <g id="logoMark">
      <path id="logoMark_PathItem_" data-name="logoMark &lt;PathItem&gt;" d="M363.1478,52.9358c-18.0286-11.2548-27.8326-28.1219-44.5713-40.309a74.107,74.107,0,0,0-19.4983-10.31,44.4848,44.4848,0,0,0-28.3324,0,74.1045,74.1045,0,0,0-19.4984,10.31c-16.7386,12.1871-26.5426,29.0542-44.5711,40.309l-.098.063a19.8005,19.8005,0,0,1-21.3477,0l-.0981-.063a79.6578,79.6578,0,0,1-7.1174-5.0254C164.231,37.0524,154.9594,23.11,140.5614,12.6268a74.1055,74.1055,0,0,0-19.4983-10.31,44.4848,44.4848,0,0,0-28.3324,0,74.1045,74.1045,0,0,0-19.4984,10.31C56.4937,24.8139,46.69,41.681,28.6612,52.9358A52.5829,52.5829,0,0,1,0,61.2384v3.3191a43.1282,43.1282,0,0,0,15.5972,2.7851A63.3731,63.3731,0,0,0,51.193,57.5917c13.9163-8.3373,23.4779-19.9771,36.065-29.3371,4.3625-3.0076,8.9518-6.262,14.8622-7.2485a27.43,27.43,0,0,1,9.5533,0c5.91.9865,10.5,4.2409,14.8623,7.2485,12.5872,9.36,22.1487,21,36.0649,29.3371a62.1556,62.1556,0,0,0,15.4144,7.0418c.2935.0888.5873.1773.8826.2623a44.2806,44.2806,0,0,0,14.7146,2.925c.7075.0233,1.4144.0315,2.12.03.0572.0005.1144,0,.1716,0s.1145,0,.1717,0c.7061.0019,1.413-.0063,2.12-.03a44.2787,44.2787,0,0,0,14.7146-2.9251,62.3269,62.3269,0,0,0,16.2969-7.304c13.9163-8.3373,23.4778-19.9771,36.065-29.3371,4.3625-3.0076,8.9518-6.262,14.8622-7.2485a27.43,27.43,0,0,1,9.5533,0c5.9105.9865,10.5,4.2409,14.8623,7.2485,12.5871,9.36,22.1485,21,36.0649,29.3371a63.3738,63.3738,0,0,0,35.5958,9.7509,43.1282,43.1282,0,0,0,15.5972-2.7851c.0722-.0315.145-.0641.2176-.0963V61.2339A52.5578,52.5578,0,0,1,363.1478,52.9358Z" style="fill: #007bff"/>
      <path id="logoMark_PathItem_2" data-name="logoMark &lt;PathItem&gt;" d="M363.1478,105.4525c-18.0286-11.2548-27.8326-28.122-44.5713-40.309a74.11,74.11,0,0,0-19.4983-10.31,44.4848,44.4848,0,0,0-28.3324,0,74.1075,74.1075,0,0,0-19.4984,10.31c-16.7386,12.187-26.5426,29.0542-44.5711,40.309a52.584,52.584,0,0,1-28.6612,8.3026v3.3191a43.1326,43.1326,0,0,0,15.5972,2.7852,63.375,63.375,0,0,0,35.5958-9.7511c13.9163-8.3372,23.4778-19.9769,36.065-29.337,4.3625-3.0076,8.9518-6.262,14.8622-7.2485a27.43,27.43,0,0,1,9.5533,0c5.9105.9865,10.5,4.2409,14.8623,7.2485,12.5871,9.36,22.1485,21,36.0649,29.337a63.3755,63.3755,0,0,0,35.5958,9.7511,43.1326,43.1326,0,0,0,15.5972-2.7852c.0722-.0315.145-.0642.2176-.0964v-3.2273A52.5586,52.5586,0,0,1,363.1478,105.4525Z" style="fill: #007bff"/>
      <path id="logoMark_PathItem_3" data-name="logoMark &lt;PathItem&gt;" d="M364.8151,158.5981c-12.6991-8.35-24.503-19.9027-36.24-30.2874a95.5764,95.5764,0,0,0-12.2537-10.2259l-.0051-.0037-.0014-.0007c-1.2784-.886-2.5937-1.7488-3.9977-2.635a58.2708,58.2708,0,0,0-27.3715-9.5885,54.3766,54.3766,0,0,0-6.4237-.1623,39.1032,39.1032,0,0,0-14.8081,2.7851c-1.7517.8061-3.6816,1.8467-4.0825,3.567a47.5142,47.5142,0,0,1,31.2937,8.0547c17.1165,11.2548,31.97,28.1219,47.8619,40.309a46.9713,46.9713,0,0,0,8.0637,4.9713,58.4172,58.4172,0,0,0,12.2943,5.25l.0182.0068.0149.003a57.7438,57.7438,0,0,0,11.6164,2.201,54.4674,54.4674,0,0,0,6.4238.1623,39.1123,39.1123,0,0,0,14.8082-2.7852v-3.319A48.0967,48.0967,0,0,1,364.8151,158.5981Z" style="fill: #007bff"/>
      <path id="logoMark_PathItem_4" data-name="logoMark &lt;PathItem&gt;" d="M279.1418,105.6627l.24,0Z" style="fill: #007bff"/>
      <path id="logoMark_PathItem_5" data-name="logoMark &lt;PathItem&gt;" d="M279.1418,105.6627h0Z" style="fill: #007bff"/>
    </g>
    <path id="fullLogo-7" data-name="fullLogo" d="M522.8,96.1125H507.6826v61.6348a47.5641,47.5641,0,0,0,.4651,7.3263,11.098,11.098,0,0,0,1.686,4.6518,6.4121,6.4121,0,0,0,3.2563,2.4421,15.7542,15.7542,0,0,0,5.0585.6978h4.6955V159.48c-.0284-.5581-.0436-1.1343-.0436-1.7322Z" style="fill: #007bff"/>
    <path id="fullLogo-8" data-name="fullLogo" d="M760.7728,61.9205a47.6274,47.6274,0,0,0,.4651,7.3263,11.1021,11.1021,0,0,0,1.6865,4.6518,6.4087,6.4087,0,0,0,3.2562,2.442,15.75,15.75,0,0,0,5.0588.6979h4.6514V.2855h-15.118Z" style="fill: #007bff"/>
  </g>
</svg>
