<svg id="Layer_1" data-name="Layer 1" xmlns="http://www.w3.org/2000/svg" viewBox="0 0 392.0264 173.0797">
  <title>merlin-ai-logo-mark-full-colour-rgb</title>
  <g id="logoMark">
    <path id="logoMark_PathItem_" data-name="logoMark &lt;PathItem&gt;" d="M363.1478,52.9358c-18.0286-11.2548-27.8326-28.1219-44.5713-40.309a74.107,74.107,0,0,0-19.4983-10.31,44.4848,44.4848,0,0,0-28.3324,0,74.1045,74.1045,0,0,0-19.4984,10.31c-16.7386,12.1871-26.5426,29.0542-44.5711,40.309l-.098.063a19.8005,19.8005,0,0,1-21.3477,0l-.0981-.063a79.6578,79.6578,0,0,1-7.1174-5.0254C164.231,37.0524,154.9594,23.11,140.5614,12.6268a74.1055,74.1055,0,0,0-19.4983-10.31,44.4848,44.4848,0,0,0-28.3324,0,74.1045,74.1045,0,0,0-19.4984,10.31C56.4937,24.8139,46.69,41.681,28.6612,52.9358A52.5829,52.5829,0,0,1,0,61.2384v3.3191a43.1282,43.1282,0,0,0,15.5972,2.7851A63.3731,63.3731,0,0,0,51.193,57.5917c13.9163-8.3373,23.4779-19.9771,36.065-29.3371,4.3625-3.0076,8.9518-6.262,14.8622-7.2485a27.43,27.43,0,0,1,9.5533,0c5.91.9865,10.5,4.2409,14.8623,7.2485,12.5872,9.36,22.1487,21,36.0649,29.3371a62.1556,62.1556,0,0,0,15.4144,7.0418c.2935.0888.5873.1773.8826.2623a44.2806,44.2806,0,0,0,14.7146,2.925c.7075.0233,1.4144.0315,2.12.03.0572.0005.1144,0,.1716,0s.1145,0,.1717,0c.7061.0019,1.413-.0063,2.12-.03a44.2787,44.2787,0,0,0,14.7146-2.9251,62.3269,62.3269,0,0,0,16.2969-7.304c13.9163-8.3373,23.4778-19.9771,36.065-29.3371,4.3625-3.0076,8.9518-6.262,14.8622-7.2485a27.43,27.43,0,0,1,9.5533,0c5.9105.9865,10.5,4.2409,14.8623,7.2485,12.5871,9.36,22.1485,21,36.0649,29.3371a63.3738,63.3738,0,0,0,35.5958,9.7509,43.1282,43.1282,0,0,0,15.5972-2.7851c.0722-.0315.145-.0641.2176-.0963V61.2339A52.5578,52.5578,0,0,1,363.1478,52.9358Z" style="fill: #007bff"/>
    <path id="logoMark_PathItem_2" data-name="logoMark &lt;PathItem&gt;" d="M363.1478,105.4525c-18.0286-11.2548-27.8326-28.122-44.5713-40.309a74.11,74.11,0,0,0-19.4983-10.31,44.4848,44.4848,0,0,0-28.3324,0,74.1075,74.1075,0,0,0-19.4984,10.31c-16.7386,12.187-26.5426,29.0542-44.5711,40.309a52.584,52.584,0,0,1-28.6612,8.3026v3.3191a43.1326,43.1326,0,0,0,15.5972,2.7852,63.375,63.375,0,0,0,35.5958-9.7511c13.9163-8.3372,23.4778-19.9769,36.065-29.337,4.3625-3.0076,8.9518-6.262,14.8622-7.2485a27.43,27.43,0,0,1,9.5533,0c5.9105.9865,10.5,4.2409,14.8623,7.2485,12.5871,9.36,22.1485,21,36.0649,29.337a63.3755,63.3755,0,0,0,35.5958,9.7511,43.1326,43.1326,0,0,0,15.5972-2.7852c.0722-.0315.145-.0642.2176-.0964v-3.2273A52.5586,52.5586,0,0,1,363.1478,105.4525Z" style="fill: #007bff"/>
    <path id="logoMark_PathItem_3" data-name="logoMark &lt;PathItem&gt;" d="M364.8151,158.5981c-12.6991-8.35-24.503-19.9027-36.24-30.2874a95.5764,95.5764,0,0,0-12.2537-10.2259l-.0051-.0037-.0014-.0007c-1.2784-.886-2.5937-1.7488-3.9977-2.635a58.2708,58.2708,0,0,0-27.3715-9.5885,54.3766,54.3766,0,0,0-6.4237-.1623,39.1032,39.1032,0,0,0-14.8081,2.7851c-1.7517.8061-3.6816,1.8467-4.0825,3.567a47.5142,47.5142,0,0,1,31.2937,8.0547c17.1165,11.2548,31.97,28.1219,47.8619,40.309a46.9713,46.9713,0,0,0,8.0637,4.9713,58.4172,58.4172,0,0,0,12.2943,5.25l.0182.0068.0149.003a57.7438,57.7438,0,0,0,11.6164,2.201,54.4674,54.4674,0,0,0,6.4238.1623,39.1123,39.1123,0,0,0,14.8082-2.7852v-3.319A48.0967,48.0967,0,0,1,364.8151,158.5981Z" style="fill: #007bff"/>
    <path id="logoMark_PathItem_4" data-name="logoMark &lt;PathItem&gt;" d="M279.1418,105.6627l.24,0Z" style="fill: #007bff"/>
    <path id="logoMark_PathItem_5" data-name="logoMark &lt;PathItem&gt;" d="M279.1418,105.6627h0Z" style="fill: #007bff"/>
  </g>
</svg>
